<?xml version="1.0" encoding="utf-8"?>
<!-- Generator: Adobe Illustrator 30.1.0, SVG Export Plug-In . SVG Version: 9.03 Build 0)  -->
<svg version="1.0" id="Layer_1" xmlns="http://www.w3.org/2000/svg" xmlns:xlink="http://www.w3.org/1999/xlink" x="0px" y="0px"
	 viewBox="0 0 2000 2000" style="enable-background:new 0 0 2000 2000;" xml:space="preserve">
<style type="text/css">
	.st0{clip-path:url(#SVGID_00000121244826085254734460000017483042220311728027_);}
	.st1{fill:#C28D3E;}
	.st2{clip-path:url(#SVGID_00000119095049559411545830000005950899931608989835_);}
	.st3{clip-path:url(#SVGID_00000103949573707700056670000007119121895176454335_);}
	.st4{clip-path:url(#SVGID_00000140726182016338090060000016508221678775550600_);}
	.st5{clip-path:url(#SVGID_00000051365543165122288070000005488965170637026718_);}
	.st6{clip-path:url(#SVGID_00000000213918248436607160000011428297794205477274_);}
	.st7{clip-path:url(#SVGID_00000099645823858581831230000007571585826086368433_);}
	.st8{fill:#86232F;}
	.st9{fill:none;stroke:#800000;stroke-width:4;}
	.st10{clip-path:url(#SVGID_00000017512967561407092640000013435685790858246077_);}
	.st11{clip-path:url(#SVGID_00000010994228964924913460000011392108802952381095_);}
	.st12{clip-path:url(#SVGID_00000005240590079808170950000000896677009014793400_);}
	.st13{clip-path:url(#SVGID_00000172420191200561949150000009615674326195590818_);}
	.st14{clip-path:url(#SVGID_00000177448712458622055840000004633658730489486779_);}
	.st15{clip-path:url(#SVGID_00000118385313350198058180000018128709736277713281_);}
	.st16{clip-path:url(#SVGID_00000093136895810969869530000004765637471021025458_);}
	.st17{clip-path:url(#SVGID_00000125581090049253867930000007720753128963522729_);}
	.st18{clip-path:url(#SVGID_00000103944473755485980450000014758468078008558520_);}
	.st19{clip-path:url(#SVGID_00000061447383542097867660000000723586669262161281_);}
	.st20{clip-path:url(#SVGID_00000092449439325853991710000001626419480570612644_);}
	.st21{clip-path:url(#SVGID_00000072246687141812247370000007134846044979988656_);}
	.st22{clip-path:url(#SVGID_00000036222648184075079840000009146030881742253456_);}
	.st23{clip-path:url(#SVGID_00000046299950803793719640000015156741357432159382_);}
	.st24{clip-path:url(#SVGID_00000132809695042850815950000010683502965091729816_);}
	.st25{clip-path:url(#SVGID_00000003801664942127764850000014704174180381345419_);}
	.st26{clip-path:url(#SVGID_00000039130205224519223600000010633249294213267592_);}
	.st27{clip-path:url(#SVGID_00000127019671863895481070000014851355591270976925_);}
	.st28{clip-path:url(#SVGID_00000121276317599473716770000001712015626182012297_);}
	.st29{clip-path:url(#SVGID_00000083784317789846035140000012532687784524408454_);}
	.st30{clip-path:url(#SVGID_00000009577677425933595510000009929902743666483870_);}
	.st31{clip-path:url(#SVGID_00000181076697246583064390000002765490517953109397_);}
	.st32{clip-path:url(#SVGID_00000108274802302598358620000011721944788669654151_);}
	.st33{clip-path:url(#SVGID_00000170961399863553049500000015013707560997288589_);}
	.st34{clip-path:url(#SVGID_00000115503668728785348300000004883593848626154168_);}
	.st35{clip-path:url(#SVGID_00000042698832409385677370000008285387543695358906_);}
	.st36{clip-path:url(#SVGID_00000001644142612801697550000005678791479744327103_);}
	.st37{clip-path:url(#SVGID_00000153671390930344466360000009085080964421371811_);}
</style>
<g>
	<g>
		<g>
			<defs>
				<rect id="SVGID_00000179607836234047495560000001153122106979797656_" x="1010.32" y="608.05" width="69.97" height="179.1"/>
			</defs>
			<clipPath id="SVGID_00000014630917449776987270000000482340375960831105_">
				<use xlink:href="#SVGID_00000179607836234047495560000001153122106979797656_"  style="overflow:visible;"/>
			</clipPath>
			<g style="clip-path:url(#SVGID_00000014630917449776987270000000482340375960831105_);">
				<path class="st1" d="M1021.34,775.47v-33.93l28.54-15.31c9.45-5.07,16.91-12.22,22.04-20.75c5.12-8.54,7.9-19.69,7.9-30.41
					v-67.01l-7.69,4.43l-32.54,18.62c-9.02,5.12-16.17,12.27-21.02,20.65c-4.86,8.43-7.47,24.76-7.47,35.16v31.37l4.86-2.62
					c3.41-1.81,5.44-5.17,5.44-9.07V686.9c0-8.59,2.13-16.54,6.08-23.37c3.95-6.83,9.82-12.65,17.28-16.91l24.87-14.25v42.68
					c0,8.8-2.24,17.02-6.4,23.96c-4.16,6.99-10.3,12.8-18.04,16.97l-28.6,15.31c-3.42,1.82-5.44,5.18-5.44,9.07v46.74l4.86-2.61
					C1019.37,782.73,1021.34,779.36,1021.34,775.47z"/>
			</g>
		</g>
		<path class="st1" d="M950.49,726.28l28.55,15.31v33.93c0,3.9,1.97,7.26,5.44,9.07l4.86,2.62v-46.74c0-3.9-2.03-7.26-5.44-9.07
			l-28.6-15.31c-7.74-4.16-13.87-9.98-18.03-16.97c-4.16-6.93-6.4-15.15-6.4-23.95v-42.68l24.86,14.25
			C963.13,651,969,656.81,973,663.64c3.95,6.83,6.08,14.78,6.08,23.37v19.69c0,3.9,2.03,7.26,5.44,9.07l4.86,2.61v-31.37
			c0-10.4-2.62-26.73-7.47-35.16c-4.91-8.43-12-15.52-21.02-20.65l-32.55-18.62l-7.68-4.43v67.02c0,10.67,2.77,21.82,7.89,30.41
			C933.58,714.06,941.04,721.21,950.49,726.28z"/>
		<path class="st1" d="M869.39,756.21l15.1,8.69l12.11,6.99l0.16-5.49c0.11-3.9-1.76-7.31-5.12-9.29l-1.97-1.12l-15.1-8.7
			c-7.42-4.27-13.28-10.14-17.23-16.97c-3.95-6.83-6.03-14.83-5.98-23.42l0.11-28.65l36.97,21.34c7.63,4.43,13.61,10.46,17.55,17.55
			c3.95,7.09,5.98,15.31,5.66,24.11l-1.01,32.44c-0.1,3.9,1.76,7.31,5.12,9.23l40.5,23.37l0.16-5.55c0.1-3.9-1.76-7.31-5.13-9.23
			l-29.4-16.97l1.01-32.39c0.37-10.67-2.08-20.75-6.94-29.45c-4.85-8.69-13.12-16.7-22.35-22.04l-44.71-25.77l-13.39-7.73
			l-0.05,8.86l-0.16,37.51c-0.05,10.4,2.56,20.11,7.36,28.54C847.57,740.58,860.37,750.98,869.39,756.21z"/>
		<g>
			<defs>
				<rect id="SVGID_00000112626387359879035120000003976131397878213034_" x="755.73" y="763.47" width="189.76" height="74.09"/>
			</defs>
			<clipPath id="SVGID_00000023267017432803456770000015646094142790297002_">
				<use xlink:href="#SVGID_00000112626387359879035120000003976131397878213034_"  style="overflow:visible;"/>
			</clipPath>
			<g style="clip-path:url(#SVGID_00000023267017432803456770000015646094142790297002_);">
				<path class="st1" d="M813.9,828.66c9.23,5.33,20.27,8.48,30.25,8.38c9.98-0.16,19.9-3.04,29.02-8.7l27.53-17.07l29.4,16.97
					c3.36,1.92,7.26,1.87,10.56-0.16l4.69-2.93l-40.49-23.37c-3.36-1.92-7.26-1.87-10.57,0.16l-27.58,17.13
					c-7.47,4.64-15.58,7.04-23.69,7.15c-8.11,0.11-16.33-2.03-23.96-6.4l-36.97-21.34l24.76-14.4c7.42-4.33,15.36-6.51,23.26-6.51
					c7.89,0,15.85,2.13,23.26,6.4l15.1,8.7l1.97,1.12c3.36,1.97,7.26,1.87,10.56-0.16l4.69-2.88l-12.11-6.99l-15.1-8.7
					c-9.02-5.17-24.44-11.1-34.2-11.1c-9.71,0.06-19.42,2.67-28.44,7.9l-32.44,18.89l-7.68,4.48l13.39,7.73L813.9,828.66z"/>
			</g>
		</g>
		<path class="st1" d="M921.84,913.93l29.4-16.97c3.36-1.92,5.28-5.33,5.12-9.23l-0.16-5.55l-40.45,23.37
			c-3.36,1.97-5.28,5.39-5.17,9.23l1.01,32.44c0.27,8.75-1.71,17.02-5.66,24.12c-3.95,7.09-9.92,13.12-17.55,17.55l-36.97,21.34
			l-0.11-28.65c-0.05-8.59,2.08-16.54,5.98-23.42c3.95-6.83,9.76-12.64,17.23-16.97l15.1-8.69l1.98-1.12
			c3.36-1.97,5.28-5.33,5.12-9.28l-0.16-5.5l-12.11,6.99l-15.1,8.7c-9.02,5.17-21.82,15.63-26.68,24.06
			c-4.86,8.43-7.42,18.14-7.36,28.54l0.16,37.51l0.05,8.86l13.39-7.74l44.66-25.77c9.23-5.33,17.5-13.34,22.35-22.04
			c4.86-8.69,7.31-18.78,6.94-29.45L921.84,913.93z"/>
		<g>
			<defs>
				<rect id="SVGID_00000114058181456455353700000017349675400825449120_" x="755.73" y="850.94" width="189.76" height="74.09"/>
			</defs>
			<clipPath id="SVGID_00000000189285024706140110000012599959283223044017_">
				<use xlink:href="#SVGID_00000114058181456455353700000017349675400825449120_"  style="overflow:visible;"/>
			</clipPath>
			<g style="clip-path:url(#SVGID_00000000189285024706140110000012599959283223044017_);">
				<path class="st1" d="M873.6,904.8l12.11-6.99l-4.69-2.88c-3.31-2.03-7.2-2.13-10.56-0.16l-1.97,1.12l-15.1,8.7
					c-7.42,4.27-15.42,6.46-23.26,6.4c-7.9,0-15.85-2.19-23.26-6.51l-24.76-14.4l36.97-21.34c7.63-4.43,15.85-6.56,23.96-6.4
					c8.11,0.11,16.27,2.51,23.69,7.15l27.58,17.13c3.31,2.08,7.2,2.08,10.57,0.16l40.49-23.37l-4.69-2.93
					c-3.31-2.03-7.2-2.08-10.56-0.16l-29.4,16.97l-27.53-17.07c-9.07-5.66-19.05-8.54-29.02-8.7c-9.98-0.16-21.02,2.99-30.25,8.38
					l-44.66,25.77l-13.39,7.74l7.69,4.48l32.44,18.88c8.96,5.23,18.67,7.84,28.43,7.9c9.71,0,25.18-5.87,34.2-11.1L873.6,904.8z"/>
			</g>
		</g>
		<g>
			<defs>
				<rect id="SVGID_00000128443911942558794810000002799885303225229737_" x="1010.32" y="900.33" width="69.97" height="180.04"/>
			</defs>
			<clipPath id="SVGID_00000080194696178379152960000010725250150993304499_">
				<use xlink:href="#SVGID_00000128443911942558794810000002799885303225229737_"  style="overflow:visible;"/>
			</clipPath>
			<g style="clip-path:url(#SVGID_00000080194696178379152960000010725250150993304499_);">
				<path class="st1" d="M1049.94,962.21l-28.54-15.31v-33.88c0-3.9-2.03-7.26-5.44-9.07l-4.86-2.62v46.74
					c0,3.9,2.03,7.26,5.44,9.07l28.6,15.31c7.74,4.16,13.87,9.98,18.04,16.97c4.16,6.93,6.4,15.15,6.4,23.95v42.68l-24.86-14.25
					c-7.42-4.27-13.28-10.03-17.29-16.86c-3.95-6.83-6.08-14.78-6.08-23.37V981.9c0-3.9-2.03-7.26-5.44-9.07l-4.85-2.62v31.37
					c0,10.4,2.61,26.73,7.47,35.16s12,15.53,21.02,20.65l32.55,18.62l7.69,4.43v-67.01c0-10.67-2.78-21.82-7.9-30.41
					C1066.85,974.43,1059.33,967.28,1049.94,962.21z"/>
			</g>
		</g>
		<g>
			<defs>
				<rect id="SVGID_00000035528342709454601700000001711340139464072856_" x="919.77" y="900.33" width="69.97" height="180.04"/>
			</defs>
			<clipPath id="SVGID_00000160173378405120867380000000122336180869386137_">
				<use xlink:href="#SVGID_00000035528342709454601700000001711340139464072856_"  style="overflow:visible;"/>
			</clipPath>
			<g style="clip-path:url(#SVGID_00000160173378405120867380000000122336180869386137_);">
				<path class="st1" d="M979.03,913.02v33.93l-28.55,15.31c-9.44,5.02-16.91,12.22-22.04,20.76c-5.12,8.59-7.89,19.74-7.89,30.41
					v67.01l7.68-4.43l32.6-18.62c9.02-5.12,16.17-12.27,21.02-20.65c4.86-8.43,7.47-24.76,7.47-35.16v-31.37l-4.86,2.62
					c-3.41,1.81-5.44,5.17-5.44,9.07v19.69c0,8.59-2.13,16.54-6.09,23.37c-3.95,6.83-9.82,12.64-17.28,16.86l-24.87,14.25v-42.68
					c0-8.8,2.24-17.02,6.4-23.95c4.16-6.99,10.3-12.81,18.04-16.97l28.6-15.31c3.42-1.81,5.44-5.17,5.44-9.07v-46.74l-4.86,2.62
					C981.06,905.76,979.03,909.12,979.03,913.02z"/>
			</g>
		</g>
		<g>
			<defs>
				<rect id="SVGID_00000100363265542077405420000006847346997253840055_" x="1054.57" y="850.94" width="189.7" height="74.09"/>
			</defs>
			<clipPath id="SVGID_00000177452995305340017660000002811000595819941796_">
				<use xlink:href="#SVGID_00000100363265542077405420000006847346997253840055_"  style="overflow:visible;"/>
			</clipPath>
			<g style="clip-path:url(#SVGID_00000177452995305340017660000002811000595819941796_);">
				<path class="st1" d="M1231.13,885.59l-44.66-25.77c-9.23-5.34-20.28-8.54-30.25-8.38s-19.9,3.04-29.02,8.69l-27.53,17.08
					l-29.4-16.97c-3.36-1.92-7.26-1.92-10.56,0.16l-4.69,2.93l40.49,23.37c3.36,1.92,7.26,1.87,10.56-0.16l27.59-17.13
					c7.47-4.64,15.58-7.04,23.69-7.15c8.11-0.1,16.33,2.03,23.96,6.4l36.97,21.34l-24.76,14.41c-7.42,4.32-15.36,6.51-23.26,6.51
					c-7.89,0-15.85-2.13-23.26-6.4l-15.1-8.7l-1.98-1.12c-3.36-1.97-7.26-1.87-10.56,0.16l-4.69,2.88l12.11,6.99l15.1,8.69
					c9.02,5.18,24.44,11.1,34.2,11.1c9.71-0.05,19.42-2.66,28.44-7.89l32.44-18.89l7.68-4.48L1231.13,885.59z"/>
			</g>
		</g>
		<path class="st1" d="M1130.98,932.28l-15.1-8.7l-12.11-6.99l-0.11,5.5c-0.11,3.9,1.76,7.31,5.12,9.28l1.97,1.12l15.1,8.69
			c7.42,4.27,13.28,10.14,17.18,16.97c3.95,6.83,6.03,14.83,5.97,23.37l-0.1,28.65l-36.98-21.34c-7.63-4.43-13.6-10.46-17.55-17.55
			c-3.95-7.1-5.97-15.31-5.66-24.12l1.02-32.44c0.1-3.9-1.76-7.31-5.18-9.23l-40.49-23.37l-0.16,5.55c-0.11,3.9,1.76,7.31,5.12,9.23
			l29.4,16.97l-1.07,32.38c-0.37,10.67,2.08,20.76,6.94,29.45c4.86,8.7,13.12,16.7,22.35,22.04l44.66,25.77l13.39,7.74l0.05-8.86
			l0.16-37.51c0.05-10.4-2.56-20.11-7.36-28.54C1152.86,947.91,1140,937.51,1130.98,932.28z"/>
		<path class="st1" d="M1078.54,774.56l-29.4,16.97c-3.36,1.92-5.28,5.33-5.13,9.23l0.16,5.55l40.5-23.37
			c3.36-1.97,5.28-5.39,5.17-9.23l-1.01-32.44c-0.27-8.8,1.71-17.02,5.66-24.11c3.95-7.1,9.87-13.12,17.55-17.55l36.97-21.34
			l0.11,28.65c0.05,8.59-2.08,16.54-5.98,23.42c-3.95,6.83-9.76,12.65-17.23,16.97l-15.1,8.7l-1.97,1.12
			c-3.36,1.98-5.29,5.34-5.12,9.23l0.16,5.49l12.11-6.99l15.1-8.69c9.02-5.18,21.82-15.64,26.68-24.07s7.42-18.14,7.36-28.54
			l-0.16-37.51l-0.05-8.86l-13.39,7.73l-44.66,25.77c-9.23,5.34-17.5,13.34-22.35,22.04c-4.86,8.7-7.31,18.78-6.94,29.45
			L1078.54,774.56z"/>
		<g>
			<defs>
				<rect id="SVGID_00000065779159734169477480000016896975889021380286_" x="1054.57" y="763.47" width="189.7" height="74.09"/>
			</defs>
			<clipPath id="SVGID_00000127739758907149774360000014651683660233202874_">
				<use xlink:href="#SVGID_00000065779159734169477480000016896975889021380286_"  style="overflow:visible;"/>
			</clipPath>
			<g style="clip-path:url(#SVGID_00000127739758907149774360000014651683660233202874_);">
				<path class="st1" d="M1126.77,783.69l-12.11,6.99l4.69,2.88c3.31,2.03,7.2,2.13,10.56,0.16l1.98-1.12l15.1-8.69
					c7.42-4.27,15.42-6.46,23.26-6.4c7.9,0,15.85,2.19,23.26,6.51l24.76,14.41l-36.97,21.34c-7.63,4.43-15.85,6.56-23.96,6.4
					c-8.11-0.1-16.27-2.51-23.69-7.15l-27.59-17.13c-3.31-2.08-7.2-2.13-10.56-0.16l-40.49,23.37l4.69,2.88
					c3.31,2.03,7.2,2.13,10.56,0.16l29.4-16.97l27.53,17.08c9.07,5.66,19.05,8.54,29.02,8.69c9.98,0.16,21.02-2.99,30.25-8.38
					l44.66-25.77l13.39-7.73l-7.69-4.48l-32.44-18.89c-8.96-5.23-18.68-7.84-28.44-7.89c-9.71,0-25.18,5.87-34.2,11.1
					L1126.77,783.69z"/>
			</g>
		</g>
	</g>
	<g>
		<g>
			<g transform="translate(196.475076, 1033.460507)">
				<g>
					<path class="st8" d="M70.73,245.44c3.57,0,6.42-0.82,8.56-2.46c2.14-1.64,3.88-3.78,5.23-6.42c1.34-2.64,2.95-6.59,4.81-11.85
						l2.12-6l44.02-119.88h5.12l47.67,121.58c1.57,3.85,2.92,8.02,4.06,12.52c1.14,4.49,1.63,8.16,1.48,11l14.54-0.85v9.4h-48.94
						v-7.04c8.4-0.15,12.6-3.57,12.6-10.27c0-2.71-0.71-6.05-2.12-10.04l-7.48-20.08l-55.56,1.27c-2.14,5.85-4.64,13.47-7.48,22.88
						c-1.43,4.7-3.22,9.61-5.35,14.75l16.69-0.85v9.4H70.73V245.44z M159.41,197.13l-15.17-40.81l-9.62-26.27h-0.42l-8.98,24.15
						l-11.54,32.48l-3.62,10.46H159.41z"/>
				</g>
			</g>
		</g>
		<g>
			<g transform="translate(304.807175, 1033.460507)">
				<g>
					<path class="st8" d="M188.48,227.9c-10.83-24.07-19.24-43.05-25.23-56.94c-5.97-13.89-11.81-28.53-17.52-43.92l-0.21,9.4
						c-1.28,41.75-2.06,71.53-2.35,89.33c0,2.14-0.07,3.71-0.21,4.71c0,4.83-0.22,9.32-0.65,13.46l16.02-0.85v9.4h-40.81v-7.04
						c5.98-0.15,9.86-1.82,11.65-5.02c1.79-3.21,2.82-8.09,3.1-14.65l4.71-114.33l-15.4,0.65v-9.19h32.71l29.04,67.1
						c10.54,24.79,18.67,43.6,24.38,56.42h0.42c1.71-4.28,5.34-13.47,10.9-27.58c5.42-13.67,11.61-28.69,18.6-45.08
						c8.11-19.08,15.09-36.03,20.94-50.85h31.62v7.06c-5.12-0.15-8.91,1.24-11.33,4.17c-2.42,2.92-3.62,7.86-3.62,14.83l0.21,4.29
						l5.56,97.23c0.28,3.27,0.42,7.68,0.42,13.23l15.6-0.62v9.4h-47.85v-7.04c5.55-0.15,9.32-1.76,11.31-4.81c2-3.07,3-7.88,3-14.44
						c0-2.69-0.07-4.76-0.21-6.19l-5.56-91.04c-0.29,0.72-0.69,1.66-1.19,2.79c-0.49,1.14-1.02,2.49-1.58,4.06l-48.08,118.81h-6.42
						L188.48,227.9z"/>
				</g>
			</g>
		</g>
		<g>
			<g transform="translate(459.933426, 1033.460507)">
				<g>
					<path class="st8" d="M158.55,245.44c3.57,0,6.42-0.82,8.56-2.46c2.14-1.64,3.88-3.78,5.23-6.42c1.34-2.64,2.95-6.59,4.81-11.85
						l2.12-6L223.3,98.84h5.12l47.67,121.58c1.57,3.85,2.92,8.02,4.06,12.52c1.14,4.49,1.63,8.16,1.48,11l14.54-0.85v9.4h-48.94
						v-7.04c8.4-0.15,12.6-3.57,12.6-10.27c0-2.71-0.71-6.05-2.12-10.04l-7.48-20.08l-55.56,1.27c-2.14,5.85-4.64,13.47-7.48,22.88
						c-1.43,4.7-3.22,9.61-5.35,14.75l16.69-0.85v9.4h-39.98V245.44z M247.23,197.13l-15.17-40.81l-9.62-26.27h-0.42l-8.98,24.15
						l-11.54,32.48l-3.62,10.46H247.23z"/>
				</g>
			</g>
		</g>
		<g>
			<g transform="translate(568.265524, 1033.460507)">
				<g>
					<path class="st8" d="M207.7,245.44c4.98-0.15,8.55-1.29,10.69-3.42c2.14-2.14,3.34-4.67,3.62-7.58
						c0.29-2.93,0.44-8.03,0.44-15.29v-92.31c0-5.98,0.21-11.11,0.65-15.4l-15.4,0.85v-9.4c14.82-0.28,26-0.42,33.54-0.42
						c6.84,0,11.98,0.07,15.4,0.21c20.08,0.28,34.79,3.66,44.12,10.15c9.33,6.49,14,15.85,14,28.1c0.14,9.83-2.79,18.67-8.77,26.5
						c-5.97,7.83-16.37,13.24-31.19,16.23c2.42,1.86,4.61,4.08,6.6,6.65c2,2.56,4.71,6.54,8.15,11.96l14.52,22.85
						c3.14,4.99,5.73,8.8,7.79,11.44c2.07,2.64,4.56,4.78,7.48,6.42c2.93,1.64,6.53,2.46,10.79,2.46v7.04h-26.92
						c-3.85-3.28-7.09-6.66-9.73-10.15c-2.62-3.5-5.72-8.03-9.29-13.58l-14.31-22.85l-2.77-4.48c-2.29-3.84-4.29-6.98-6-9.4
						c-1.71-2.43-3.56-4.57-5.54-6.42c-1.29,0.14-3.29,0.21-5.98,0.21c-3.85,0-6.7-0.07-8.56-0.21v41.44
						c0,7.56-0.22,13.19-0.65,16.9l15.4-0.85v9.4H207.7V245.44z M250.45,177.69c29.05,0,43.58-11.46,43.58-34.4
						c0-10.83-3.14-18.95-9.42-24.35c-6.27-5.42-15.88-8.12-28.83-8.12c-4.99,0-8.55,1-10.69,3c-2.14,1.99-3.35,4.41-3.65,7.25
						c-0.28,2.85-0.42,7.91-0.42,15.17v41.04C245.31,177.56,248.45,177.69,250.45,177.69z"/>
				</g>
			</g>
		</g>
		<g>
			<g transform="translate(676.918148, 1033.460507)">
				<g>
					<path class="st8" d="M230.87,245.44c3.57,0,6.42-0.82,8.56-2.46c2.14-1.64,3.88-3.78,5.23-6.42c1.34-2.64,2.95-6.59,4.81-11.85
						l2.12-6l44.02-119.88h5.12l47.67,121.58c1.57,3.85,2.92,8.02,4.06,12.52c1.14,4.49,1.63,8.16,1.48,11l14.54-0.85v9.4h-48.94
						v-7.04c8.4-0.15,12.6-3.57,12.6-10.27c0-2.71-0.71-6.05-2.12-10.04l-7.48-20.08L267,206.32c-2.14,5.85-4.64,13.47-7.48,22.88
						c-1.43,4.7-3.22,9.61-5.35,14.75l16.69-0.85v9.4h-39.98V245.44z M319.56,197.13l-15.17-40.81l-9.62-26.27h-0.42l-8.98,24.15
						l-11.54,32.48l-3.62,10.46H319.56z"/>
				</g>
			</g>
		</g>
		<g>
			<g transform="translate(785.250201, 1033.460507)">
				<g>
					<path class="st8" d="M288.57,140.94c-5.12-12.11-8.19-21.8-9.19-29.06l-11.96,0.42v-9.4h49.58v7.06l-0.23,0.21
						c-4.7,0.28-8.15,1.31-10.35,3.1c-2.21,1.78-3.31,4.38-3.31,7.79c0,3.28,0.99,7.34,2.98,12.19l5.56,13.67
						c1.43,3.56,3.6,8.97,6.52,16.25c2.92,7.27,5.66,13.89,8.23,19.85l5.56,13.04c5.55,12.68,9.47,22.08,11.75,28.21h0.42
						l7.92-22.85l2.77-7.71l18.81-52.77l4.92-13.69c2.69-7.68,4.76-12.95,6.19-15.81l-16.46,0.85v-9.4h43.38v7.06
						c-6.27,0.28-11.07,1.92-14.42,4.92c-3.35,2.99-6.38,8.33-9.08,16.02l-45.08,123.73h-5.98L288.57,140.94z"/>
				</g>
			</g>
		</g>
		<g>
			<g transform="translate(897.909172, 1033.460507)">
				<g>
					<path class="st8" d="M304.54,245.44c3.57,0,6.42-0.82,8.56-2.46c2.14-1.64,3.88-3.78,5.23-6.42c1.34-2.64,2.95-6.59,4.81-11.85
						l2.12-6l44.02-119.88h5.12l47.67,121.58c1.57,3.85,2.92,8.02,4.06,12.52c1.14,4.49,1.63,8.16,1.48,11l14.54-0.85v9.4h-48.94
						v-7.04c8.4-0.15,12.6-3.57,12.6-10.27c0-2.71-0.71-6.05-2.12-10.04l-7.48-20.08l-55.56,1.27c-2.14,5.85-4.64,13.47-7.48,22.88
						c-1.43,4.7-3.22,9.61-5.35,14.75l16.69-0.85v9.4h-39.98V245.44z M393.23,197.13l-15.17-40.81l-9.62-26.27h-0.42l-8.98,24.15
						l-11.54,32.48l-3.62,10.46H393.23z"/>
				</g>
			</g>
		</g>
		<g>
			<g transform="translate(1006.241271, 1033.460507)">
				<g>
					<path class="st8" d="M386.38,245.44c6.14-0.29,10.09-2,11.88-5.12c1.78-3.14,2.67-7.98,2.67-14.54v-6.62l0.21-108.33l-22,0.21
						c-8.83,0-15.14,2.96-18.92,8.88c-3.78,5.91-5.67,15.27-5.67,28.08h-7.9l1.27-45.08H472.5l1.29,45.08h-8.12
						c-0.14-8.97-1.03-16.12-2.67-21.46c-1.64-5.34-4.42-9.34-8.33-11.98c-3.92-2.64-9.52-3.96-16.79-3.96h-18.15l-0.23,116.46
						c0,7.56-0.21,13.19-0.62,16.9l17.73-0.85v9.4h-50.23V245.44z"/>
				</g>
			</g>
		</g>
		<g>
			<g transform="translate(1116.816914, 1033.460507)">
				<g>
					<path class="st8" d="M390.55,245.44c4.98-0.15,8.55-1.29,10.69-3.42c2.14-2.14,3.34-4.67,3.62-7.58
						c0.29-2.93,0.44-8.03,0.44-15.29v-92.31c0-5.98,0.21-11.11,0.65-15.4l-15.4,0.85v-9.4h48.08v7.06
						c-4.99,0.14-8.55,1.28-10.69,3.42c-2.14,2.14-3.35,4.67-3.65,7.58c-0.28,2.92-0.42,8.01-0.42,15.27v35.48h76.5v-44.88
						c0-5.98,0.21-11.11,0.65-15.4l-15.38,0.85v-9.4h48.06v7.06c-4.99,0.14-8.55,1.28-10.69,3.42c-2.12,2.14-3.33,4.67-3.62,7.58
						c-0.28,2.92-0.42,8.01-0.42,15.27v90.81c0,7.56-0.22,13.19-0.65,16.9l15.38-0.85v9.4h-48.06v-7.04
						c4.97-0.15,8.53-1.29,10.67-3.42c2.14-2.14,3.34-4.67,3.62-7.58c0.29-2.93,0.44-8.03,0.44-15.29v-38.9l-76.5,0.85v45.94
						c0,7.56-0.22,13.19-0.65,16.9l15.4-0.85v9.4h-48.08V245.44z"/>
				</g>
			</g>
		</g>
		<g>
			<g transform="translate(1249.828105, 1033.460507)">
				<g>
					<path class="st8" d="M434.89,245.44c4.98-0.15,8.55-1.29,10.69-3.42c2.14-2.14,3.34-4.67,3.62-7.58
						c0.29-2.93,0.44-8.03,0.44-15.29v-92.31c0-5.98,0.21-11.11,0.65-15.4l-15.4,0.85v-9.4h48.08v7.06
						c-4.99,0.14-8.55,1.28-10.69,3.42c-2.14,2.14-3.35,4.67-3.65,7.58c-0.28,2.92-0.42,8.01-0.42,15.27v90.81
						c0,7.56-0.22,13.19-0.65,16.9l15.4-0.85v9.4h-48.08V245.44z"/>
				</g>
			</g>
		</g>
	</g>
	<g>
		<g>
			<g transform="translate(380.096396, 1117.793428)">
				<g>
					<path class="st8" d="M213.08,273.68c-9.04-0.01-16.14-2.29-21.29-6.84c-5.16-4.54-7.73-10.78-7.73-18.69
						c0-7.91,2.55-14.15,7.65-18.71c5.1-4.57,12.11-6.86,21.01-6.86c6.78,0,12.61,1.27,17.5,3.8l0.14,12.07h-0.56
						c-2.4-8.61-7.86-12.92-16.38-12.92c-5.53,0-9.9,2-13.1,6c-3.21,4.01-4.81,9.48-4.81,16.42c0,6.93,1.53,12.44,4.59,16.5
						c3.07,4.07,7.24,6.18,12.49,6.32c5.43,0,9.57-1.36,12.43-4.08c2.9-2.81,4.92-7.63,6.04-14.47h0.58l0.7,12.09
						C228.53,270.59,222.11,273.71,213.08,273.68z"/>
				</g>
			</g>
		</g>
		<g>
			<g transform="translate(447.345021, 1117.793428)">
				<g>
					<path class="st8" d="M210.12,229.47c5-4.58,11.72-6.88,20.18-6.88c8.45,0,15.17,2.3,20.16,6.88
						c4.98,4.59,7.48,10.82,7.48,18.69c0,7.87-2.5,14.11-7.48,18.69c-4.99,4.59-11.71,6.88-20.16,6.88
						c-8.46,0-15.18-2.29-20.18-6.88c-4.99-4.58-7.48-10.82-7.48-18.69C202.65,240.28,205.14,234.05,210.12,229.47z M218.49,264.72
						c2.87,4.05,6.8,6.06,11.77,6.06s8.91-2.02,11.81-6.06c2.9-4.06,4.35-9.57,4.35-16.54c0-6.98-1.45-12.51-4.35-16.56
						c-2.9-4.06-6.84-6.08-11.81-6.08s-8.9,2.03-11.77,6.08c-2.88,4.06-4.31,9.58-4.31,16.56
						C214.18,255.15,215.61,260.66,218.49,264.72z"/>
				</g>
			</g>
		</g>
		<g>
			<g transform="translate(520.003931, 1117.793428)">
				<g>
					<path class="st8" d="M276.4,224.28c-1.63,0-2.87,0.71-3.72,2.11c-0.37,0.61-0.59,1.31-0.64,2.11v36.24
						c0,3.14,0.21,5.79,0.64,7.93l0.22,1.05h-0.64l-35.49-33.78v27.89c0,1.17,0.42,2.16,1.25,2.98c0.84,0.83,1.86,1.23,3.04,1.23
						h1.33v0.7h-21.29v-0.7h1.27c1.22,0,2.25-0.41,3.08-1.23c0.84-0.82,1.27-1.84,1.27-3.06V231.3c0-3.09-0.21-5.67-0.64-7.73
						l-0.14-1.05h0.64l35.47,33.8v-27.75c-0.04-1.22-0.49-2.23-1.33-3.04c-0.84-0.82-1.84-1.23-3.02-1.23h-1.25v-0.72h21.27v0.72
						H276.4z"/>
				</g>
			</g>
		</g>
		<g>
			<g transform="translate(591.945148, 1117.793428)">
				<g>
					<path class="st8" d="M276.75,223.56h15.05v0.72h-0.64c-1.07,0-2.16,0.33-3.24,0.97c-1.07,0.65-1.96,1.63-2.66,2.94
						l-16.66,36.76c-2.15,4.64-3.3,7.71-3.44,9.21h-0.62l-21.29-45.89c-0.71-1.31-1.6-2.31-2.68-2.98c-1.07-0.68-2.17-1.01-3.3-1.01
						h-0.56v-0.72h22.35v0.72h-0.56c-1.03,0-1.8,0.32-2.29,0.95c-0.49,0.63-0.74,1.22-0.74,1.79c0,0.56,0.09,1.11,0.28,1.67
						l11.95,29.03l12.37-29.03c0.22-0.61,0.34-1.18,0.34-1.71c0-0.54-0.25-1.12-0.74-1.75c-0.49-0.64-1.25-0.95-2.29-0.95h-0.64
						V223.56z"/>
				</g>
			</g>
		</g>
		<g>
			<g transform="translate(656.267805, 1117.793428)">
				<g>
					<path class="st8" d="M259.98,272.05c1.22,0,2.26-0.43,3.12-1.29c0.87-0.87,1.34-1.92,1.39-3.14v-39.13
						c-0.11-1.22-0.46-2.11-1.05-2.68c-1.13-1.02-2.28-1.53-3.46-1.53h-0.91v-0.72h26.92c2.29,0,4.19-0.17,5.69-0.52
						c1.5-0.36,2.41-0.6,2.74-0.74v12.29l-0.7-0.06v-0.78c0-2.9-1.08-4.96-3.24-6.18c-1.03-0.61-2.26-0.94-3.66-0.99h-11.79v20.46
						h9.26c1.73-0.05,3.17-0.65,4.29-1.79c1.12-1.15,1.69-2.57,1.69-4.25v-0.64h0.7v16.22h-0.7v-0.56c0-1.73-0.56-3.16-1.67-4.27
						c-1.1-1.12-2.5-1.71-4.18-1.77h-9.4v19.74h9.21c3.42,0,6.28-0.98,8.59-2.94c2.32-1.97,4.04-4.76,5.17-8.37h0.72l-3.24,14.33
						h-36.4v-0.7H259.98z"/>
				</g>
			</g>
		</g>
		<g>
			<g transform="translate(715.290566, 1117.793428)">
				<g>
					<path class="st8" d="M329.6,224.28c-1.63,0-2.87,0.71-3.72,2.11c-0.37,0.61-0.59,1.31-0.64,2.11v36.24
						c0,3.14,0.21,5.79,0.64,7.93l0.22,1.05h-0.64l-35.49-33.78v27.89c0,1.17,0.42,2.16,1.25,2.98c0.84,0.83,1.86,1.23,3.04,1.23
						h1.33v0.7h-21.29v-0.7h1.27c1.22,0,2.25-0.41,3.08-1.23c0.84-0.82,1.27-1.84,1.27-3.06V231.3c0-3.09-0.21-5.67-0.64-7.73
						l-0.14-1.05h0.64l35.47,33.8v-27.75c-0.04-1.22-0.49-2.23-1.33-3.04c-0.84-0.82-1.84-1.23-3.02-1.23h-1.25v-0.72h21.27v0.72
						H329.6z"/>
				</g>
			</g>
		</g>
		<g>
			<g transform="translate(787.231783, 1117.793428)">
				<g>
					<path class="st8" d="M320.53,226.44v41.25c0.05,1.21,0.51,2.24,1.37,3.08c0.87,0.85,1.92,1.27,3.14,1.27h0.84l0.08,0.7h-21.37
						v-0.7h0.91c1.16,0,2.18-0.42,3.04-1.27c0.87-0.84,1.36-1.85,1.45-3.02v-41.31h-9.48c-2.15,0.05-3.86,0.74-5.13,2.05
						c-1.26,1.31-1.89,3.02-1.89,5.13v0.84h-0.72v-12.23c1.92,0.8,4.68,1.22,8.29,1.27h28.33c1.44,0,3.02-0.14,4.73-0.42
						c1.71-0.29,2.89-0.58,3.56-0.85v12.23h-0.72v-0.84c0-2.91-1.1-4.98-3.3-6.18c-1.02-0.61-2.26-0.94-3.72-0.99H320.53z"/>
				</g>
			</g>
		</g>
		<g>
			<g transform="translate(848.18681, 1117.793428)">
				<g>
					<path class="st8" d="M312.26,272.05c1.22,0,2.26-0.43,3.12-1.29c0.87-0.87,1.34-1.92,1.39-3.14v-38.99
						c-0.05-1.22-0.52-2.25-1.39-3.08c-0.86-0.84-1.9-1.27-3.12-1.27h-0.91v-0.72h21.37l-0.08,0.72h-0.84
						c-1.22,0-2.28,0.43-3.16,1.27c-0.89,0.84-1.33,1.86-1.33,3.08v38.99c0,1.22,0.44,2.27,1.33,3.14c0.88,0.86,1.94,1.29,3.16,1.29
						h0.84l0.08,0.7h-21.37v-0.7H312.26z"/>
				</g>
			</g>
		</g>
		<g>
			<g transform="translate(893.683846, 1117.793428)">
				<g>
					<path class="st8" d="M331.72,229.47c5-4.58,11.72-6.88,20.18-6.88c8.45,0,15.17,2.3,20.16,6.88
						c4.98,4.59,7.48,10.82,7.48,18.69c0,7.87-2.5,14.11-7.48,18.69c-4.99,4.59-11.71,6.88-20.16,6.88
						c-8.46,0-15.18-2.29-20.18-6.88c-4.99-4.58-7.48-10.82-7.48-18.69C324.24,240.28,326.73,234.05,331.72,229.47z M340.09,264.72
						c2.87,4.05,6.8,6.06,11.77,6.06c4.97,0,8.91-2.02,11.81-6.06c2.9-4.06,4.35-9.57,4.35-16.54c0-6.98-1.45-12.51-4.35-16.56
						c-2.9-4.06-6.84-6.08-11.81-6.08c-4.97,0-8.9,2.03-11.77,6.08c-2.88,4.06-4.31,9.58-4.31,16.56
						C335.77,255.15,337.21,260.66,340.09,264.72z"/>
				</g>
			</g>
		</g>
		<g>
			<g transform="translate(966.34279, 1117.793428)">
				<g>
					<path class="st8" d="M397.99,224.28c-1.63,0-2.87,0.71-3.72,2.11c-0.37,0.61-0.59,1.31-0.64,2.11v36.24
						c0,3.14,0.21,5.79,0.64,7.93l0.22,1.05h-0.64l-35.49-33.78v27.89c0,1.17,0.42,2.16,1.25,2.98c0.84,0.83,1.86,1.23,3.04,1.23
						H364v0.7H342.7v-0.7h1.27c1.22,0,2.25-0.41,3.08-1.23c0.84-0.82,1.27-1.84,1.27-3.06V231.3c0-3.09-0.21-5.67-0.64-7.73
						l-0.14-1.05h0.64l35.47,33.8v-27.75c-0.04-1.22-0.49-2.23-1.33-3.04c-0.84-0.82-1.84-1.23-3.02-1.23h-1.25v-0.72h21.27v0.72
						H397.99z"/>
				</g>
			</g>
		</g>
		<g>
			<g transform="translate(1038.284007, 1117.793428)">
				<g>
					<path class="st8" d="M363.71,266.21c0-3.36,0.72-6.24,2.17-8.63h0.64c-0.04,0.37-0.06,0.75-0.06,1.11
						c0,3.24,1.15,6.06,3.46,8.47c2.32,2.42,5.49,3.62,9.52,3.62c3.14,0,5.59-0.75,7.34-2.25c1.76-1.5,2.64-3.39,2.64-5.69
						c0-1.36-0.44-2.58-1.31-3.66c-0.86-1.07-2.3-2.27-4.31-3.58l-12.21-8.09c-4.55-3.03-6.82-6.78-6.82-11.23
						c0-0.46,0.04-0.93,0.14-1.41c0.28-3.7,1.71-6.67,4.31-8.91c2.59-2.25,6.07-3.38,10.44-3.38c2.57,0,5.76,0.23,9.56,0.7h4.41
						l-0.91,10.34h-0.7c0-2.44-0.9-4.39-2.7-5.87c-1.8-1.48-4.2-2.23-7.2-2.23c-3.66,0-6.31,1.13-7.95,3.38
						c-0.84,1.07-1.25,2.16-1.25,3.24c0,1.07,0.2,1.98,0.62,2.72c0.66,1.22,2.09,2.53,4.29,3.94l13.42,8.71
						c4.21,2.77,6.32,6.38,6.32,10.84c0,4.96-1.7,8.76-5.09,11.41c-3.39,2.64-7.9,3.96-13.52,3.96c-3.2,0-6.14-0.39-8.83-1.15
						c-2.69-0.77-4.67-1.81-5.94-3.12C363.87,268.56,363.71,267.48,363.71,266.21z"/>
				</g>
			</g>
		</g>
	</g>
	<g>
		<path class="st9" d="M1168.29,1080.37h221.22"/>
		<path class="st9" d="M610.49,1080.37h221.22"/>
	</g>
</g>
</svg>
