<?xml version="1.0" encoding="utf-8"?>
<!-- Generator: Adobe Illustrator 30.1.0, SVG Export Plug-In . SVG Version: 9.03 Build 0)  -->
<svg version="1.0" id="Layer_1" xmlns="http://www.w3.org/2000/svg" xmlns:xlink="http://www.w3.org/1999/xlink" x="0px" y="0px"
	 viewBox="0 0 2000 2000" style="enable-background:new 0 0 2000 2000;" xml:space="preserve">
<style type="text/css">
	.st0{clip-path:url(#SVGID_00000082361540033728148450000010119404508885021365_);}
	.st1{fill:#C28D3E;}
	.st2{clip-path:url(#SVGID_00000150819606713838020500000002117484139632471975_);}
	.st3{clip-path:url(#SVGID_00000133495315841362479210000013278930762262141570_);}
	.st4{clip-path:url(#SVGID_00000145766548545779846290000012909407503746669228_);}
	.st5{clip-path:url(#SVGID_00000164504266098717743190000004555702008373569173_);}
	.st6{clip-path:url(#SVGID_00000093885202596894043480000011205844864371462051_);}
	.st7{clip-path:url(#SVGID_00000062901090549699684600000016753002197917387670_);}
	.st8{fill:#86232F;}
	.st9{fill:none;stroke:#800000;stroke-width:4;}
	.st10{clip-path:url(#SVGID_00000022534224662816609620000008105951103851321507_);}
	.st11{clip-path:url(#SVGID_00000108294015456128999290000009434365090980942270_);}
	.st12{clip-path:url(#SVGID_00000129195754138153605220000006257480093623275654_);}
	.st13{clip-path:url(#SVGID_00000178195179175179199280000016490515738644954042_);}
	.st14{clip-path:url(#SVGID_00000116203421966011699660000017491855560832748696_);}
	.st15{clip-path:url(#SVGID_00000090282025431985164160000009663440115733265846_);}
	.st16{clip-path:url(#SVGID_00000170968081165667036530000000221879397965749438_);}
	.st17{clip-path:url(#SVGID_00000043449615995156257170000003175560092810430871_);}
	.st18{clip-path:url(#SVGID_00000139275540040520123150000014737349099003979194_);}
	.st19{clip-path:url(#SVGID_00000041982367544875268870000015980740343546977713_);}
	.st20{clip-path:url(#SVGID_00000156552332494231830930000005566124447936043953_);}
	.st21{clip-path:url(#SVGID_00000079458478869068501620000000305743231348409021_);}
	.st22{clip-path:url(#SVGID_00000076566246735160461050000004703020906277702842_);}
	.st23{clip-path:url(#SVGID_00000137836232628692873340000014566205250421952947_);}
	.st24{clip-path:url(#SVGID_00000075852046503097024450000004207505908501335954_);}
	.st25{clip-path:url(#SVGID_00000044143629066482403710000004965465737801519515_);}
	.st26{clip-path:url(#SVGID_00000139991055307456061250000008535065825712961187_);}
	.st27{clip-path:url(#SVGID_00000088101174288641497880000011952066990690286771_);}
	.st28{clip-path:url(#SVGID_00000126299733871193522060000010179655982442091680_);}
	.st29{clip-path:url(#SVGID_00000134248342975345471590000012804503126186838694_);}
	.st30{clip-path:url(#SVGID_00000003793611265042584940000012182648579604124574_);}
	.st31{clip-path:url(#SVGID_00000160174885760266742880000001522998644964698498_);}
	.st32{clip-path:url(#SVGID_00000121251666424852024270000002247766600001516195_);}
	.st33{clip-path:url(#SVGID_00000071549845547708216510000006741295411187598750_);}
	.st34{clip-path:url(#SVGID_00000098193274316324650560000016092889840448555151_);}
	.st35{clip-path:url(#SVGID_00000119117711923540348720000013715066690508021393_);}
	.st36{clip-path:url(#SVGID_00000048458807026193681760000003256335759281324721_);}
	.st37{clip-path:url(#SVGID_00000173152893652305052540000004760036593339437720_);}
</style>
<g>
	<g>
		<g>
			<defs>
				<rect id="SVGID_1_" x="497.17" y="882.34" width="34.86" height="89.23"/>
			</defs>
			<clipPath id="SVGID_00000119798853293522645860000017557647926078899869_">
				<use xlink:href="#SVGID_1_"  style="overflow:visible;"/>
			</clipPath>
			<g style="clip-path:url(#SVGID_00000119798853293522645860000017557647926078899869_);">
				<path class="st1" d="M502.65,965.76v-16.91l14.22-7.63c4.71-2.53,8.43-6.09,10.98-10.34c2.55-4.25,3.94-9.81,3.94-15.15v-33.39
					l-3.83,2.21l-16.21,9.28c-4.49,2.55-8.05,6.11-10.47,10.29c-2.42,4.2-3.72,12.33-3.72,17.52v15.63l2.42-1.3
					c1.7-0.9,2.71-2.58,2.71-4.52v-9.81c0-4.28,1.06-8.24,3.03-11.64c1.97-3.4,4.89-6.3,8.61-8.43l12.39-7.1v21.27
					c0,4.39-1.12,8.48-3.19,11.94c-2.07,3.48-5.13,6.38-8.99,8.45l-14.25,7.63c-1.7,0.91-2.71,2.58-2.71,4.52v23.28l2.42-1.3
					C501.67,969.37,502.65,967.69,502.65,965.76z"/>
			</g>
		</g>
		<path class="st1" d="M467.35,941.25l14.22,7.63v16.91c0,1.94,0.98,3.61,2.71,4.52l2.42,1.3v-23.29c0-1.94-1.01-3.61-2.71-4.52
			l-14.25-7.63c-3.86-2.07-6.91-4.97-8.98-8.45c-2.07-3.45-3.19-7.55-3.19-11.93v-21.27l12.39,7.1c3.69,2.13,6.62,5.02,8.61,8.43
			c1.97,3.4,3.03,7.36,3.03,11.64v9.81c0,1.94,1.01,3.61,2.71,4.52l2.42,1.3v-15.63c0-5.18-1.3-13.32-3.72-17.52
			c-2.45-4.2-5.98-7.73-10.47-10.29l-16.22-9.28l-3.83-2.21v33.39c0,5.31,1.38,10.87,3.93,15.15
			C458.93,935.16,462.65,938.72,467.35,941.25z"/>
		<path class="st1" d="M426.95,956.16l7.52,4.33l6.03,3.48l0.08-2.74c0.05-1.94-0.88-3.64-2.55-4.63l-0.98-0.56l-7.52-4.33
			c-3.69-2.13-6.62-5.05-8.59-8.45c-1.97-3.4-3-7.39-2.98-11.67l0.05-14.27l18.42,10.63c3.8,2.21,6.78,5.21,8.75,8.75
			c1.97,3.53,2.98,7.63,2.82,12.01l-0.5,16.16c-0.05,1.94,0.88,3.64,2.55,4.6l20.18,11.64l0.08-2.76c0.05-1.94-0.88-3.64-2.55-4.6
			l-14.65-8.45l0.5-16.13c0.19-5.32-1.04-10.34-3.46-14.67c-2.42-4.33-6.54-8.32-11.14-10.98l-22.27-12.84l-6.67-3.85l-0.03,4.41
			l-0.08,18.69c-0.03,5.18,1.28,10.02,3.67,14.22C416.08,948.37,422.46,953.55,426.95,956.16z"/>
		<g>
			<defs>
				<rect id="SVGID_00000158743552035474473790000016261342327970049969_" x="370.33" y="959.78" width="94.54" height="36.91"/>
			</defs>
			<clipPath id="SVGID_00000098917129987435790430000015281078712748802741_">
				<use xlink:href="#SVGID_00000158743552035474473790000016261342327970049969_"  style="overflow:visible;"/>
			</clipPath>
			<g style="clip-path:url(#SVGID_00000098917129987435790430000015281078712748802741_);">
				<path class="st1" d="M399.31,992.26c4.6,2.66,10.1,4.23,15.07,4.17c4.97-0.08,9.91-1.52,14.46-4.33l13.72-8.51l14.65,8.45
					c1.67,0.96,3.61,0.93,5.26-0.08l2.34-1.46l-20.17-11.64c-1.68-0.96-3.62-0.93-5.26,0.08l-13.74,8.53
					c-3.72,2.31-7.76,3.51-11.8,3.56c-4.04,0.05-8.13-1.01-11.94-3.19l-18.42-10.63l12.33-7.18c3.69-2.15,7.65-3.24,11.59-3.24
					c3.93,0,7.89,1.06,11.59,3.19l7.52,4.33l0.98,0.56c1.68,0.98,3.61,0.93,5.26-0.08l2.34-1.43l-6.03-3.48l-7.52-4.33
					c-4.49-2.58-12.17-5.53-17.04-5.53c-4.84,0.03-9.68,1.33-14.17,3.94l-16.16,9.41l-3.83,2.23l6.67,3.85L399.31,992.26z"/>
			</g>
		</g>
		<path class="st1" d="M453.08,1034.73l14.65-8.45c1.67-0.96,2.63-2.66,2.55-4.6l-0.08-2.77l-20.15,11.64
			c-1.67,0.98-2.63,2.68-2.58,4.6l0.5,16.16c0.13,4.36-0.85,8.48-2.82,12.02c-1.97,3.53-4.94,6.54-8.75,8.75l-18.42,10.63
			l-0.05-14.27c-0.03-4.28,1.04-8.24,2.98-11.67c1.97-3.4,4.86-6.3,8.59-8.45l7.52-4.33l0.99-0.56c1.67-0.98,2.63-2.66,2.55-4.62
			l-0.08-2.74l-6.03,3.48l-7.52,4.33c-4.49,2.58-10.87,7.79-13.29,11.99c-2.42,4.2-3.69,9.04-3.67,14.22l0.08,18.69l0.03,4.41
			l6.67-3.86l22.25-12.84c4.6-2.66,8.72-6.64,11.14-10.98c2.42-4.33,3.64-9.36,3.46-14.67L453.08,1034.73z"/>
		<g>
			<defs>
				<rect id="SVGID_00000044151000130447386870000015807319210122643875_" x="370.33" y="1003.35" width="94.54" height="36.91"/>
			</defs>
			<clipPath id="SVGID_00000114067741332673306430000013946278888597894291_">
				<use xlink:href="#SVGID_00000044151000130447386870000015807319210122643875_"  style="overflow:visible;"/>
			</clipPath>
			<g style="clip-path:url(#SVGID_00000114067741332673306430000013946278888597894291_);">
				<path class="st1" d="M429.05,1030.19l6.03-3.48l-2.34-1.44c-1.65-1.01-3.59-1.06-5.26-0.08l-0.98,0.56l-7.52,4.33
					c-3.69,2.13-7.68,3.22-11.59,3.19c-3.94,0-7.89-1.09-11.59-3.24l-12.33-7.18l18.42-10.63c3.8-2.2,7.89-3.27,11.94-3.19
					c4.04,0.05,8.11,1.25,11.8,3.56l13.74,8.53c1.65,1.04,3.59,1.04,5.26,0.08l20.17-11.64l-2.34-1.46
					c-1.65-1.01-3.59-1.04-5.26-0.08l-14.65,8.45l-13.72-8.51c-4.52-2.82-9.49-4.25-14.46-4.33c-4.97-0.08-10.47,1.49-15.07,4.17
					l-22.25,12.84l-6.67,3.86l3.83,2.23l16.16,9.41c4.47,2.61,9.3,3.91,14.17,3.94c4.84,0,12.55-2.92,17.04-5.53L429.05,1030.19z"/>
			</g>
		</g>
		<g>
			<defs>
				<rect id="SVGID_00000134939940133237984830000013810171007001795719_" x="497.17" y="1027.96" width="34.86" height="89.69"/>
			</defs>
			<clipPath id="SVGID_00000098916574972530601010000010231124892211228605_">
				<use xlink:href="#SVGID_00000134939940133237984830000013810171007001795719_"  style="overflow:visible;"/>
			</clipPath>
			<g style="clip-path:url(#SVGID_00000098916574972530601010000010231124892211228605_);">
				<path class="st1" d="M516.9,1058.79l-14.22-7.63v-16.88c0-1.94-1.01-3.61-2.71-4.52l-2.42-1.3v23.29c0,1.94,1.01,3.61,2.71,4.52
					l14.25,7.63c3.86,2.07,6.91,4.97,8.99,8.45c2.07,3.45,3.19,7.55,3.19,11.93v21.27l-12.39-7.1c-3.69-2.13-6.62-5-8.61-8.4
					c-1.97-3.4-3.03-7.36-3.03-11.64v-9.81c0-1.94-1.01-3.61-2.71-4.52l-2.42-1.3v15.63c0,5.18,1.3,13.32,3.72,17.52
					c2.42,4.2,5.98,7.74,10.47,10.29l16.22,9.28l3.83,2.21v-33.39c0-5.32-1.38-10.87-3.94-15.15
					C525.33,1064.88,521.58,1061.31,516.9,1058.79z"/>
			</g>
		</g>
		<g>
			<defs>
				<rect id="SVGID_00000173874841694318437710000017834173991705000893_" x="452.05" y="1027.96" width="34.86" height="89.69"/>
			</defs>
			<clipPath id="SVGID_00000052815124040552510030000005037432161417037244_">
				<use xlink:href="#SVGID_00000173874841694318437710000017834173991705000893_"  style="overflow:visible;"/>
			</clipPath>
			<g style="clip-path:url(#SVGID_00000052815124040552510030000005037432161417037244_);">
				<path class="st1" d="M481.58,1034.28v16.91l-14.22,7.63c-4.7,2.5-8.42,6.09-10.98,10.34c-2.55,4.28-3.93,9.83-3.93,15.15v33.39
					l3.83-2.21l16.24-9.28c4.49-2.55,8.05-6.11,10.47-10.29c2.42-4.2,3.72-12.33,3.72-17.52v-15.63l-2.42,1.3
					c-1.7,0.9-2.71,2.58-2.71,4.52v9.81c0,4.28-1.06,8.24-3.03,11.64c-1.97,3.4-4.89,6.3-8.61,8.4l-12.39,7.1v-21.27
					c0-4.39,1.12-8.48,3.19-11.93c2.07-3.48,5.13-6.38,8.99-8.45l14.25-7.63c1.7-0.9,2.71-2.58,2.71-4.52v-23.29l-2.42,1.3
					C482.59,1030.67,481.58,1032.34,481.58,1034.28z"/>
			</g>
		</g>
		<g>
			<defs>
				<rect id="SVGID_00000129175408296990461880000001511216505025053374_" x="519.21" y="1003.35" width="94.51" height="36.91"/>
			</defs>
			<clipPath id="SVGID_00000169548355062554895890000009745892273927808668_">
				<use xlink:href="#SVGID_00000129175408296990461880000001511216505025053374_"  style="overflow:visible;"/>
			</clipPath>
			<g style="clip-path:url(#SVGID_00000169548355062554895890000009745892273927808668_);">
				<path class="st1" d="M607.17,1020.62l-22.25-12.84c-4.6-2.66-10.1-4.25-15.07-4.17c-4.97,0.08-9.91,1.51-14.46,4.33l-13.72,8.51
					l-14.65-8.45c-1.67-0.96-3.61-0.96-5.26,0.08l-2.34,1.46l20.17,11.64c1.67,0.96,3.61,0.93,5.26-0.08l13.74-8.53
					c3.72-2.31,7.76-3.51,11.8-3.56c4.04-0.05,8.13,1.01,11.94,3.19l18.42,10.63l-12.33,7.18c-3.69,2.15-7.65,3.24-11.59,3.24
					c-3.93,0-7.89-1.06-11.59-3.19l-7.52-4.33l-0.99-0.56c-1.67-0.98-3.61-0.93-5.26,0.08l-2.34,1.44l6.03,3.48l7.52,4.33
					c4.49,2.58,12.17,5.53,17.04,5.53c4.84-0.03,9.67-1.33,14.17-3.93l16.16-9.41l3.83-2.23L607.17,1020.62z"/>
			</g>
		</g>
		<path class="st1" d="M557.28,1043.88l-7.52-4.33l-6.03-3.48l-0.05,2.74c-0.05,1.94,0.88,3.64,2.55,4.62l0.98,0.56l7.52,4.33
			c3.69,2.13,6.62,5.05,8.56,8.45c1.97,3.4,3,7.39,2.98,11.64l-0.05,14.27l-18.42-10.63c-3.8-2.21-6.78-5.21-8.75-8.75
			c-1.97-3.54-2.98-7.63-2.82-12.02l0.51-16.16c0.05-1.94-0.88-3.64-2.58-4.6l-20.17-11.64l-0.08,2.76
			c-0.05,1.94,0.88,3.64,2.55,4.6l14.65,8.45l-0.53,16.13c-0.19,5.32,1.04,10.34,3.46,14.67c2.42,4.33,6.54,8.32,11.14,10.98
			l22.25,12.84l6.67,3.86l0.03-4.41l0.08-18.69c0.03-5.18-1.28-10.02-3.67-14.22C568.18,1051.67,561.77,1046.48,557.28,1043.88z"/>
		<path class="st1" d="M531.15,965.3l-14.65,8.45c-1.68,0.96-2.63,2.66-2.55,4.6l0.08,2.76l20.18-11.64
			c1.67-0.98,2.63-2.69,2.58-4.6l-0.5-16.16c-0.13-4.39,0.85-8.48,2.82-12.01c1.97-3.54,4.92-6.54,8.75-8.75l18.42-10.63l0.05,14.27
			c0.03,4.28-1.04,8.24-2.98,11.67c-1.97,3.4-4.86,6.3-8.59,8.45l-7.52,4.33l-0.98,0.56c-1.68,0.99-2.63,2.66-2.55,4.6l0.08,2.74
			l6.03-3.48l7.52-4.33c4.49-2.58,10.87-7.79,13.29-11.99c2.42-4.2,3.69-9.04,3.67-14.22l-0.08-18.69l-0.03-4.41l-6.67,3.85
			l-22.25,12.84c-4.6,2.66-8.72,6.65-11.14,10.98c-2.42,4.33-3.64,9.36-3.46,14.67L531.15,965.3z"/>
		<g>
			<defs>
				<rect id="SVGID_00000173850480120619870710000004323438511876630719_" x="519.21" y="959.78" width="94.51" height="36.91"/>
			</defs>
			<clipPath id="SVGID_00000147909930436641810790000000327761953102275740_">
				<use xlink:href="#SVGID_00000173850480120619870710000004323438511876630719_"  style="overflow:visible;"/>
			</clipPath>
			<g style="clip-path:url(#SVGID_00000147909930436641810790000000327761953102275740_);">
				<path class="st1" d="M555.18,969.85l-6.03,3.48l2.34,1.44c1.65,1.01,3.59,1.06,5.26,0.08l0.99-0.56l7.52-4.33
					c3.69-2.13,7.68-3.22,11.59-3.19c3.94,0,7.89,1.09,11.59,3.24l12.33,7.18l-18.42,10.63c-3.8,2.21-7.9,3.27-11.94,3.19
					c-4.04-0.05-8.11-1.25-11.8-3.56l-13.74-8.53c-1.65-1.04-3.59-1.06-5.26-0.08l-20.17,11.64l2.34,1.43
					c1.65,1.01,3.59,1.06,5.26,0.08l14.65-8.45l13.72,8.51c4.52,2.82,9.49,4.25,14.46,4.33c4.97,0.08,10.47-1.49,15.07-4.17
					l22.25-12.84l6.67-3.85l-3.83-2.23l-16.16-9.41c-4.47-2.61-9.3-3.91-14.17-3.93c-4.84,0-12.55,2.92-17.04,5.53L555.18,969.85z"
					/>
			</g>
		</g>
	</g>
	<g>
		<g>
			<g transform="translate(196.475076, 1033.460507)">
				<g>
					<path class="st8" d="M484.47-22.6c2.31,0,4.16-0.53,5.54-1.59c1.38-1.06,2.51-2.44,3.39-4.15c0.87-1.71,1.91-4.26,3.12-7.67
						l1.38-3.88l28.5-77.6h3.32l30.86,78.7c1.01,2.49,1.89,5.19,2.63,8.11c0.73,2.91,1.06,5.28,0.96,7.12l9.41-0.55v6.08h-31.68
						v-4.56c5.44-0.1,8.16-2.31,8.16-6.65c0-1.75-0.46-3.92-1.38-6.5l-4.84-13l-35.97,0.82c-1.39,3.79-3,8.72-4.84,14.81
						c-0.93,3.04-2.08,6.22-3.47,9.55l10.8-0.55v6.08h-25.88V-22.6z M541.88-53.87l-9.82-26.42l-6.23-17.01h-0.27l-5.81,15.63
						l-7.47,21.02l-2.35,6.77H541.88z"/>
				</g>
			</g>
		</g>
		<g>
			<g transform="translate(304.807175, 1033.460507)">
				<g>
					<path class="st8" d="M522.5-33.96c-7.01-15.58-12.46-27.87-16.33-36.86c-3.87-8.99-7.65-18.47-11.34-28.43l-0.13,6.08
						c-0.83,27.03-1.34,46.3-1.52,57.83c0,1.39-0.05,2.4-0.13,3.05c0,3.13-0.14,6.03-0.42,8.71l10.37-0.55v6.08h-26.42v-4.56
						c3.87-0.1,6.39-1.18,7.54-3.25c1.16-2.08,1.83-5.24,2.01-9.48l3.05-74.01l-9.97,0.42v-5.95h21.17l18.8,43.44
						c6.82,16.05,12.08,28.22,15.78,36.52h0.27c1.11-2.77,3.46-8.72,7.05-17.86c3.51-8.85,7.52-18.57,12.04-29.18
						c5.25-12.35,9.77-23.32,13.55-32.92h20.47v4.57c-3.32-0.1-5.77,0.8-7.34,2.7c-1.56,1.89-2.35,5.09-2.35,9.6l0.13,2.78
						l3.6,62.94c0.18,2.11,0.27,4.97,0.27,8.56l10.1-0.4v6.08h-30.98v-4.56c3.59-0.1,6.04-1.14,7.32-3.12
						c1.29-1.99,1.94-5.1,1.94-9.35c0-1.74-0.05-3.08-0.13-4.01L567.31-98c-0.19,0.47-0.45,1.07-0.77,1.81
						c-0.32,0.74-0.66,1.61-1.02,2.63l-31.13,76.91h-4.15L522.5-33.96z"/>
				</g>
			</g>
		</g>
		<g>
			<g transform="translate(459.933426, 1033.460507)">
				<g>
					<path class="st8" d="M448.41-22.6c2.31,0,4.16-0.53,5.54-1.59c1.38-1.06,2.51-2.44,3.39-4.15c0.87-1.71,1.91-4.26,3.12-7.67
						l1.38-3.88l28.5-77.6h3.32l30.86,78.7c1.01,2.49,1.89,5.19,2.63,8.11c0.73,2.91,1.06,5.28,0.96,7.12l9.41-0.55v6.08h-31.68
						v-4.56c5.44-0.1,8.16-2.31,8.16-6.65c0-1.75-0.46-3.92-1.38-6.5l-4.84-13l-35.97,0.82c-1.39,3.79-3,8.72-4.84,14.81
						c-0.93,3.04-2.08,6.22-3.47,9.55l10.8-0.55v6.08h-25.88V-22.6z M505.82-53.87L496-80.29l-6.23-17.01h-0.27l-5.81,15.63
						l-7.47,21.02l-2.35,6.77H505.82z"/>
				</g>
			</g>
		</g>
		<g>
			<g transform="translate(568.265524, 1033.460507)">
				<g>
					<path class="st8" d="M442.02-22.6c3.23-0.1,5.53-0.84,6.92-2.21c1.38-1.38,2.16-3.02,2.35-4.91c0.19-1.89,0.28-5.2,0.28-9.9
						v-59.76c0-3.87,0.14-7.19,0.42-9.97l-9.97,0.55v-6.08c9.59-0.18,16.83-0.27,21.71-0.27c4.43,0,7.75,0.05,9.97,0.13
						c13,0.18,22.52,2.37,28.56,6.57c6.04,4.2,9.06,10.26,9.06,18.19c0.09,6.37-1.8,12.08-5.68,17.15
						c-3.87,5.07-10.6,8.57-20.19,10.51c1.56,1.21,2.99,2.64,4.28,4.3c1.29,1.66,3.05,4.23,5.27,7.74l9.4,14.79
						c2.03,3.23,3.71,5.7,5.04,7.4c1.34,1.71,2.95,3.1,4.84,4.15c1.89,1.06,4.22,1.59,6.99,1.59v4.56h-17.42
						c-2.49-2.12-4.59-4.31-6.3-6.57c-1.7-2.27-3.71-5.2-6.01-8.79l-9.26-14.79l-1.79-2.9c-1.48-2.49-2.78-4.52-3.88-6.08
						c-1.11-1.57-2.3-2.96-3.59-4.15c-0.84,0.09-2.13,0.13-3.87,0.13c-2.49,0-4.34-0.04-5.54-0.13v26.82
						c0,4.89-0.14,8.54-0.42,10.94l9.97-0.55v6.08h-31.13V-22.6z M469.69-66.46c18.81,0,28.21-7.42,28.21-22.27
						c0-7.01-2.03-12.27-6.1-15.77c-4.06-3.51-10.28-5.26-18.66-5.26c-3.23,0-5.54,0.65-6.92,1.94c-1.39,1.29-2.17,2.85-2.36,4.69
						c-0.18,1.84-0.27,5.12-0.27,9.82v26.57C466.37-66.54,468.4-66.46,469.69-66.46z"/>
				</g>
			</g>
		</g>
		<g>
			<g transform="translate(676.918148, 1033.460507)">
				<g>
					<path class="st8" d="M418.7-22.6c2.31,0,4.16-0.53,5.54-1.59c1.38-1.06,2.51-2.44,3.39-4.15c0.87-1.71,1.91-4.26,3.12-7.67
						l1.38-3.88l28.5-77.6h3.32l30.86,78.7c1.01,2.49,1.89,5.19,2.63,8.11c0.73,2.91,1.06,5.28,0.96,7.12l9.41-0.55v6.08h-31.68
						v-4.56c5.44-0.1,8.16-2.31,8.16-6.65c0-1.75-0.46-3.92-1.38-6.5l-4.84-13l-35.97,0.82c-1.39,3.79-3,8.72-4.84,14.81
						c-0.93,3.04-2.08,6.22-3.47,9.55l10.8-0.55v6.08H418.7V-22.6z M476.11-53.87l-9.82-26.42l-6.23-17.01h-0.27l-5.81,15.63
						l-7.47,21.02l-2.35,6.77H476.11z"/>
				</g>
			</g>
		</g>
		<g>
			<g transform="translate(785.250201, 1033.460507)">
				<g>
					<path class="st8" d="M417.85-90.25c-3.32-7.84-5.3-14.11-5.95-18.81l-7.74,0.27v-6.08h32.1v4.57l-0.15,0.13
						c-3.04,0.18-5.27,0.85-6.7,2.01c-1.43,1.15-2.14,2.83-2.14,5.04c0,2.12,0.64,4.75,1.93,7.89l3.6,8.85
						c0.92,2.3,2.33,5.81,4.22,10.52c1.89,4.7,3.66,8.99,5.33,12.85l3.6,8.44c3.59,8.21,6.13,14.3,7.61,18.26h0.27l5.12-14.79
						l1.79-4.99l12.18-34.16l3.18-8.86c1.74-4.97,3.08-8.38,4.01-10.24l-10.65,0.55v-6.08h28.08v4.57
						c-4.06,0.18-7.17,1.24-9.33,3.18c-2.17,1.94-4.13,5.39-5.88,10.37l-29.18,80.09h-3.87L417.85-90.25z"/>
				</g>
			</g>
		</g>
		<g>
			<g transform="translate(897.909172, 1033.460507)">
				<g>
					<path class="st8" d="M388.45-22.6c2.31,0,4.16-0.53,5.54-1.59c1.38-1.06,2.51-2.44,3.38-4.15c0.87-1.71,1.91-4.26,3.12-7.67
						l1.38-3.88l28.5-77.6h3.32l30.86,78.7c1.01,2.49,1.89,5.19,2.63,8.11c0.73,2.91,1.06,5.28,0.96,7.12l9.41-0.55v6.08h-31.68
						v-4.56c5.44-0.1,8.16-2.31,8.16-6.65c0-1.75-0.46-3.92-1.38-6.5l-4.84-13l-35.97,0.82c-1.39,3.79-3,8.72-4.84,14.81
						c-0.93,3.04-2.08,6.22-3.47,9.55l10.8-0.55v6.08h-25.88V-22.6z M445.86-53.87l-9.82-26.42l-6.23-17.01h-0.27l-5.81,15.63
						l-7.47,21.02l-2.35,6.77H445.86z"/>
				</g>
			</g>
		</g>
		<g>
			<g transform="translate(1006.241271, 1033.460507)">
				<g>
					<path class="st8" d="M403.22-22.6c3.97-0.19,6.53-1.29,7.69-3.32c1.15-2.03,1.73-5.17,1.73-9.41v-4.29l0.13-70.13l-14.24,0.13
						c-5.72,0-9.8,1.92-12.25,5.75c-2.45,3.82-3.67,9.88-3.67,18.18h-5.11l0.82-29.18h80.65l0.84,29.18h-5.26
						c-0.09-5.81-0.67-10.44-1.73-13.89c-1.06-3.46-2.86-6.05-5.39-7.75c-2.54-1.71-6.16-2.56-10.87-2.56h-11.75l-0.15,75.39
						c0,4.89-0.13,8.54-0.4,10.94l11.48-0.55v6.08h-32.51V-22.6z"/>
				</g>
			</g>
		</g>
		<g>
			<g transform="translate(1116.816914, 1033.460507)">
				<g>
					<path class="st8" d="M366.93-22.6c3.23-0.1,5.53-0.84,6.92-2.21c1.38-1.38,2.16-3.02,2.35-4.91c0.19-1.89,0.28-5.2,0.28-9.9
						v-59.76c0-3.87,0.14-7.19,0.42-9.97l-9.97,0.55v-6.08h31.13v4.57c-3.23,0.09-5.54,0.83-6.92,2.21
						c-1.39,1.39-2.17,3.02-2.36,4.91c-0.18,1.89-0.27,5.19-0.27,9.89v22.97h49.52v-29.05c0-3.87,0.14-7.19,0.42-9.97l-9.95,0.55
						v-6.08h31.11v4.57c-3.23,0.09-5.54,0.83-6.92,2.21c-1.38,1.39-2.16,3.02-2.35,4.91c-0.18,1.89-0.27,5.19-0.27,9.89v58.79
						c0,4.89-0.14,8.54-0.42,10.94l9.95-0.55v6.08h-31.11v-4.56c3.22-0.1,5.52-0.84,6.9-2.21c1.38-1.38,2.16-3.02,2.35-4.91
						c0.19-1.89,0.28-5.2,0.28-9.9V-64.8l-49.52,0.55v29.74c0,4.89-0.14,8.54-0.42,10.94l9.97-0.55v6.08h-31.13V-22.6z"/>
				</g>
			</g>
		</g>
		<g>
			<g transform="translate(1249.828105, 1033.460507)">
				<g>
					<path class="st8" d="M348.72-22.6c3.23-0.1,5.53-0.84,6.92-2.21c1.38-1.38,2.16-3.02,2.35-4.91c0.19-1.89,0.28-5.2,0.28-9.9
						v-59.76c0-3.87,0.14-7.19,0.42-9.97l-9.97,0.55v-6.08h31.13v4.57c-3.23,0.09-5.54,0.83-6.92,2.21
						c-1.39,1.39-2.17,3.02-2.36,4.91c-0.18,1.89-0.27,5.19-0.27,9.89v58.79c0,4.89-0.14,8.54-0.42,10.94l9.97-0.55v6.08h-31.13
						V-22.6z"/>
				</g>
			</g>
		</g>
	</g>
	<path class="st9" d="M647.33,882.34l0,235.31"/>
	<g>
		<g>
			<g transform="translate(380.096396, 1117.793428)">
				<g>
					<path class="st8" d="M319.64-34.06c-5.85-0.01-10.45-1.48-13.78-4.43c-3.34-2.94-5.01-6.98-5.01-12.1s1.65-9.16,4.95-12.11
						c3.3-2.96,7.84-4.44,13.6-4.44c4.39,0,8.17,0.82,11.33,2.46l0.09,7.81h-0.36c-1.55-5.58-5.09-8.37-10.6-8.37
						c-3.58,0-6.41,1.3-8.48,3.89c-2.08,2.59-3.11,6.14-3.11,10.63c0,4.49,0.99,8.05,2.97,10.68c1.99,2.64,4.68,4,8.08,4.09
						c3.52,0,6.2-0.88,8.04-2.64c1.88-1.82,3.18-4.94,3.91-9.37h0.37l0.45,7.83C329.65-36.06,325.49-34.05,319.64-34.06z"/>
				</g>
			</g>
		</g>
		<g>
			<g transform="translate(447.345021, 1117.793428)">
				<g>
					<path class="st8" d="M294.02-62.68c3.23-2.97,7.59-4.45,13.06-4.45c5.47,0,9.82,1.49,13.05,4.45c3.22,2.97,4.84,7,4.84,12.1
						s-1.62,9.13-4.84,12.1c-3.23,2.97-7.58,4.45-13.05,4.45c-5.48,0-9.83-1.48-13.06-4.45c-3.23-2.97-4.84-7-4.84-12.1
						S290.79-59.72,294.02-62.68z M299.43-39.87c1.86,2.62,4.4,3.93,7.62,3.93s5.77-1.31,7.64-3.93c1.88-2.63,2.82-6.19,2.82-10.71
						c0-4.52-0.94-8.1-2.82-10.72s-4.43-3.94-7.64-3.94s-5.76,1.31-7.62,3.94c-1.86,2.63-2.79,6.2-2.79,10.72
						C296.64-46.06,297.57-42.49,299.43-39.87z"/>
				</g>
			</g>
		</g>
		<g>
			<g transform="translate(520.003931, 1117.793428)">
				<g>
					<path class="st8" d="M311.29-66.04c-1.06,0-1.86,0.46-2.41,1.36c-0.24,0.4-0.38,0.85-0.41,1.36v23.46
						c0,2.03,0.14,3.75,0.41,5.14l0.14,0.68h-0.41L285.64-55.9v18.06c0,0.76,0.27,1.4,0.81,1.93c0.55,0.53,1.2,0.8,1.97,0.8h0.86
						v0.45H275.5v-0.45h0.82c0.79,0,1.45-0.26,1.99-0.8c0.55-0.53,0.82-1.19,0.82-1.98v-23.6c0-2-0.14-3.67-0.41-5.01l-0.09-0.68
						h0.41l22.96,21.88v-17.97c-0.03-0.79-0.32-1.44-0.86-1.97c-0.54-0.53-1.19-0.8-1.96-0.8h-0.81v-0.46h13.77v0.46H311.29z"/>
				</g>
			</g>
		</g>
		<g>
			<g transform="translate(591.945148, 1117.793428)">
				<g>
					<path class="st8" d="M286.15-66.51h9.74v0.46h-0.41c-0.7,0-1.4,0.21-2.1,0.63c-0.69,0.42-1.27,1.06-1.72,1.9l-10.79,23.8
						c-1.39,3.01-2.13,4.99-2.23,5.96h-0.4l-13.78-29.7c-0.46-0.85-1.04-1.49-1.74-1.93c-0.69-0.44-1.41-0.66-2.14-0.66h-0.36v-0.46
						h14.47v0.46h-0.36c-0.67,0-1.16,0.21-1.48,0.62c-0.32,0.41-0.48,0.79-0.48,1.16c0,0.36,0.06,0.72,0.18,1.08l7.73,18.79
						l8.01-18.79c0.14-0.39,0.22-0.76,0.22-1.11c0-0.35-0.16-0.73-0.48-1.13c-0.32-0.41-0.81-0.62-1.48-0.62h-0.41V-66.51z"/>
				</g>
			</g>
		</g>
		<g>
			<g transform="translate(656.267805, 1117.793428)">
				<g>
					<path class="st8" d="M252.61-35.12c0.79,0,1.46-0.28,2.02-0.84c0.57-0.57,0.87-1.24,0.9-2.03v-25.33
						c-0.07-0.79-0.3-1.37-0.68-1.74c-0.73-0.66-1.48-0.99-2.24-0.99h-0.59v-0.46h17.43c1.48,0,2.71-0.11,3.68-0.33
						c0.97-0.23,1.56-0.39,1.78-0.48v7.95l-0.45-0.04v-0.5c0-1.88-0.7-3.21-2.1-4c-0.67-0.39-1.46-0.61-2.37-0.64h-7.63v13.24h6
						c1.12-0.03,2.05-0.42,2.78-1.16c0.73-0.75,1.09-1.66,1.09-2.75v-0.41h0.45v10.5h-0.45v-0.36c0-1.12-0.36-2.05-1.08-2.77
						c-0.71-0.73-1.62-1.11-2.7-1.15h-6.09v12.78h5.96c2.21,0,4.07-0.63,5.56-1.9c1.5-1.28,2.62-3.08,3.35-5.42h0.46l-2.1,9.28
						h-23.57v-0.45H252.61z"/>
				</g>
			</g>
		</g>
		<g>
			<g transform="translate(715.290566, 1117.793428)">
				<g>
					<path class="st8" d="M276.86-66.04c-1.06,0-1.86,0.46-2.41,1.36c-0.24,0.4-0.38,0.85-0.41,1.36v23.46
						c0,2.03,0.14,3.75,0.41,5.14l0.14,0.68h-0.41L251.21-55.9v18.06c0,0.76,0.27,1.4,0.81,1.93c0.55,0.53,1.2,0.8,1.97,0.8h0.86
						v0.45h-13.78v-0.45h0.82c0.79,0,1.45-0.26,1.99-0.8c0.55-0.53,0.82-1.19,0.82-1.98v-23.6c0-2-0.14-3.67-0.41-5.01l-0.09-0.68
						h0.41l22.96,21.88v-17.97c-0.03-0.79-0.32-1.44-0.86-1.97c-0.54-0.53-1.19-0.8-1.96-0.8h-0.81v-0.46h13.77v0.46H276.86z"/>
				</g>
			</g>
		</g>
		<g>
			<g transform="translate(787.231783, 1117.793428)">
				<g>
					<path class="st8" d="M245.62-64.64v26.71c0.03,0.78,0.33,1.45,0.89,1.99c0.57,0.55,1.24,0.82,2.03,0.82h0.54l0.05,0.45H235.3
						v-0.45h0.59c0.75,0,1.41-0.27,1.97-0.82c0.57-0.55,0.88-1.2,0.94-1.96v-26.74h-6.14c-1.39,0.04-2.5,0.48-3.32,1.33
						c-0.82,0.85-1.22,1.96-1.22,3.32v0.54h-0.46v-7.92c1.24,0.51,3.03,0.79,5.37,0.82h18.34c0.93,0,1.96-0.09,3.06-0.27
						c1.11-0.19,1.87-0.37,2.3-0.55v7.92h-0.46v-0.54c0-1.89-0.71-3.22-2.14-4c-0.66-0.39-1.46-0.61-2.41-0.64H245.62z"/>
				</g>
			</g>
		</g>
		<g>
			<g transform="translate(848.18681, 1117.793428)">
				<g>
					<path class="st8" d="M218.77-35.12c0.79,0,1.46-0.28,2.02-0.84c0.57-0.57,0.87-1.24,0.9-2.03v-25.24
						c-0.04-0.79-0.33-1.45-0.9-1.99c-0.56-0.55-1.23-0.82-2.02-0.82h-0.59v-0.46h13.84l-0.05,0.46h-0.54
						c-0.79,0-1.47,0.28-2.05,0.82c-0.58,0.54-0.86,1.21-0.86,1.99v25.24c0,0.79,0.29,1.47,0.86,2.03c0.57,0.56,1.25,0.84,2.05,0.84
						h0.54l0.05,0.45h-13.84v-0.45H218.77z"/>
				</g>
			</g>
		</g>
		<g>
			<g transform="translate(893.683846, 1117.793428)">
				<g>
					<path class="st8" d="M215.32-62.68c3.23-2.97,7.59-4.45,13.06-4.45c5.47,0,9.82,1.49,13.05,4.45c3.22,2.97,4.84,7,4.84,12.1
						s-1.62,9.13-4.84,12.1c-3.23,2.97-7.58,4.45-13.05,4.45c-5.48,0-9.83-1.48-13.06-4.45c-3.23-2.97-4.84-7-4.84-12.1
						S212.09-59.72,215.32-62.68z M220.74-39.87c1.86,2.62,4.4,3.93,7.62,3.93c3.22,0,5.77-1.31,7.64-3.93
						c1.88-2.63,2.82-6.19,2.82-10.71c0-4.52-0.94-8.1-2.82-10.72c-1.88-2.63-4.43-3.94-7.64-3.94c-3.22,0-5.76,1.31-7.62,3.94
						c-1.86,2.63-2.79,6.2-2.79,10.72C217.95-46.06,218.88-42.49,220.74-39.87z"/>
				</g>
			</g>
		</g>
		<g>
			<g transform="translate(966.34279, 1117.793428)">
				<g>
					<path class="st8" d="M232.6-66.04c-1.06,0-1.86,0.46-2.41,1.36c-0.24,0.4-0.38,0.85-0.41,1.36v23.46
						c0,2.03,0.14,3.75,0.41,5.14l0.14,0.68h-0.41L206.95-55.9v18.06c0,0.76,0.27,1.4,0.81,1.93c0.55,0.53,1.2,0.8,1.97,0.8h0.86
						v0.45h-13.78v-0.45h0.82c0.79,0,1.45-0.26,1.99-0.8c0.55-0.53,0.82-1.19,0.82-1.98v-23.6c0-2-0.14-3.67-0.41-5.01l-0.09-0.68
						h0.41l22.96,21.88v-17.97c-0.03-0.79-0.32-1.44-0.86-1.97c-0.54-0.53-1.19-0.8-1.96-0.8h-0.81v-0.46h13.77v0.46H232.6z"/>
				</g>
			</g>
		</g>
		<g>
			<g transform="translate(1038.284007, 1117.793428)">
				<g>
					<path class="st8" d="M185.04-38.9c0-2.18,0.47-4.04,1.4-5.59h0.41c-0.03,0.24-0.04,0.48-0.04,0.72c0,2.09,0.75,3.92,2.24,5.48
						c1.5,1.56,3.56,2.34,6.16,2.34c2.03,0,3.62-0.48,4.75-1.45c1.14-0.97,1.71-2.19,1.71-3.68c0-0.88-0.28-1.67-0.85-2.37
						c-0.56-0.69-1.49-1.47-2.79-2.32l-7.9-5.24c-2.94-1.96-4.41-4.39-4.41-7.27c0-0.3,0.03-0.6,0.09-0.91
						c0.18-2.39,1.11-4.31,2.79-5.77c1.68-1.46,3.93-2.19,6.76-2.19c1.66,0,3.73,0.15,6.19,0.45h2.86l-0.59,6.69h-0.45
						c0-1.58-0.59-2.84-1.75-3.8c-1.17-0.96-2.72-1.44-4.66-1.44c-2.37,0-4.09,0.73-5.15,2.19c-0.54,0.69-0.81,1.4-0.81,2.1
						c0,0.69,0.13,1.28,0.4,1.76c0.43,0.79,1.35,1.64,2.78,2.55l8.69,5.64c2.73,1.8,4.09,4.13,4.09,7.01c0,3.21-1.1,5.67-3.29,7.39
						c-2.2,1.71-5.12,2.56-8.75,2.56c-2.07,0-3.97-0.25-5.71-0.75c-1.74-0.5-3.02-1.17-3.85-2.02
						C185.14-37.38,185.04-38.08,185.04-38.9z"/>
				</g>
			</g>
		</g>
	</g>
</g>
</svg>
